<svg xmlns="http://www.w3.org/2000/svg" width="83" height="86" viewBox="0 0 83 86">
    <defs>
        <linearGradient id="u5ir2uoala" x1="76.975%" x2="-39.121%" y1="11.605%" y2="11.605%">
            <stop offset="0%" stop-color="#E6F1FB"/>
            <stop offset="100%" stop-color="#F4FAFF"/>
            <stop offset="100%" stop-color="#F4FAFF"/>
        </linearGradient>
    </defs>
    <path fill="url(#u5ir2uoala)" d="M44.813 62.785c-3.46 1.173-6.509 2.793-9.066 4.764-5.416-4.287-6.303-9.223-6.303-11.987 0-3.912.883-7.635 5.02-11.197 4.327-3.83 9.957-4.056 12.016-.691 1.893 3.093.04 8.038-4.133 11.049-1.452 1.045-2.991 1.711-4.463 2.015.511 1.65 2.066 3.328 4.438 4.743.837.498 1.518.864 2.537 1.288l-.046.016zM80.576 44.36c4.098 3.556 4.967 7.272 4.98 11.18 0 3.154-1.143 9.136-8.812 13.748-1.75 1.05-3.07 1.687-5.69 2.636 5.608 2.85 8.853 7.35 8.853 12.486 0 7.436-6.147 11.686-13.093 14.211 3.436 2.476 5.249 5.707 5.249 9.037 0 2.164-.27 4.435-3.739 7.08l-.004-.005c-.204.164-.457.267-.739.267-.653 0-1.183-.534-1.183-1.19 0-.218.061-.42.163-.596l-.004-.004c2.624-4.43-.327-7.227-5.016-9.206v6.886c0 2.266-1.829 4.106-4.082 4.106-2.252 0-4.08-1.84-4.08-4.106V104c-4.882 2.061-7.392 4.443-5.025 9.21h-.004c.102.176.163.378.163.595 0 .657-.53 1.19-1.183 1.19-.282 0-.54-.102-.743-.266l-.004.004c-3.584-2.53-3.82-5.075-3.82-7.128 0-3.576 1.849-6.619 5.28-9.013h-.003c1.947-1.35 3-1.732 9.407-4.607 11.114-4.988 14.285-5.801 14.285-9.583 0-1.56-2.212-3.893-6.432-5.338-1.33-.448-2.584-.862-3.767-1.256v5.235l-8.163 3.662v-8.902c-1.188.395-2.445.813-3.78 1.261-4.22 1.441-6.432 3.778-6.432 5.338 0 2.13.996 3.375 4.225 5.017-2.804 1.384-5.204 3.113-7.126 5.104C37.2 92.076 35 88.733 35 84.402c0-6.081 4.547-11.271 12.187-13.883 5.469-1.827 9.632-3.198 12.864-4.258 9.428-3.1 10.534-3.486 12.75-4.816 2.347-1.413 3.886-3.088 4.392-4.734-1.457-.304-2.98-.97-4.416-2.012-4.13-3.006-5.959-7.941-4.09-11.029 2.037-3.363 7.612-3.129 11.89.69zM42.321 29.854c-2.98 4.228-7.896 6.99-13.463 6.99C1.738 36.845 0 3.909 0 3.909h28.858c4.891 0 9.28 2.132 12.298 5.517V9.42l8.288 8.444v13.673l-2.07-2.112c-1.446-1.47-3.863-1.26-5.053.428zM114.995 4.1s1.091 32.817-28.7 32.817c-5.535 0-10.424-2.753-13.389-6.962-1.183-1.681-3.586-1.895-5.024-.426l-6.154 6.28v21.236l-8.189 2.687V15.3c-2.445-1.42-4.095-4.061-4.095-7.097 0-4.676 3.907-8.441 8.636-8.191 4.23.221 7.653 3.77 7.743 8.011.065 3.11-1.601 5.829-4.095 7.277v6.887L74.065 9.594v.008c3.002-3.376 7.366-5.5 12.23-5.5h28.7z" opacity=".103"/>
</svg>
